HIERARCHY
ROOT Hips
{
    OFFSET 0.000000 0.000000 0.000000
    CHANNELS 6 Xposition Yposition Zposition Zrotation Xrotation Yrotation
    JOINT Chest
    {
        OFFSET -0.000000 0.078598 0.000000
        CHANNELS 3 Zrotation Xrotation Yrotation
        JOINT Chest2
        {
            OFFSET -0.000000 0.230468 0.000000
            CHANNELS 3 Zrotation Xrotation Yrotation
            JOINT Neck
            {
                OFFSET -0.000000 0.249638 0.000000
                CHANNELS 3 Zrotation Xrotation Yrotation
                JOINT Head
                {
                    OFFSET -0.000000 0.103998 0.019170
                    CHANNELS 3 Zrotation Xrotation Yrotation
                    End Site
                    {
                        OFFSET -0.000000 0.191701 0.000000
                    }
                }
            }
            JOINT LeftCollar
            {
                OFFSET 0.038274 0.205938 -0.001496
                CHANNELS 3 Zrotation Xrotation Yrotation
                JOINT LeftShoulder
                {
                    OFFSET 0.132388 0.000000 0.000000
                    CHANNELS 3 Zrotation Xrotation Yrotation
                    JOINT LeftElbow
                    {
                        OFFSET 0.250301 0.000000 0.000000
                        CHANNELS 3 Zrotation Xrotation Yrotation
                        JOINT LeftWrist
                        {
                            OFFSET 0.285291 0.000000 0.000000
                            CHANNELS 3 Zrotation Xrotation Yrotation
                            End Site
                            {
                                OFFSET 0.000000 -0.143776 0.000000
                            }
                        }
                    }
                }
            }
            JOINT RightCollar
            {
                OFFSET -0.038406 0.205938 -0.001496
                CHANNELS 3 Zrotation Xrotation Yrotation
                JOINT RightShoulder
                {
                    OFFSET -0.132388 0.000000 0.000000
                    CHANNELS 3 Zrotation Xrotation Yrotation
                    JOINT RightElbow
                    {
                        OFFSET -0.250301 0.000000 0.000000
                        CHANNELS 3 Zrotation Xrotation Yrotation
                        JOINT RightWrist
                        {
                            OFFSET -0.285291 0.000000 0.000000
                            CHANNELS 3 Zrotation Xrotation Yrotation
                            End Site
                            {
                                OFFSET -0.000000 -0.143776 0.000000
                            }
                        }
                    }
                }
            }
        }
    }
    JOINT LeftHip
    {
        OFFSET 0.095851 0.000000 0.000000
        CHANNELS 3 Zrotation Xrotation Yrotation
        JOINT LeftKnee
        {
            OFFSET -0.000000 -0.406444 0.000000
            CHANNELS 3 Zrotation Xrotation Yrotation
            JOINT LeftAnkle
            {
                OFFSET -0.000000 -0.408443 0.000000
                CHANNELS 3 Zrotation Xrotation Yrotation
                JOINT LeftToe
                {
                    OFFSET -0.000000 -0.062303 0.143776
                    CHANNELS 3 Zrotation Xrotation Yrotation
                    End Site
                    {
                        OFFSET -0.000000 0.000000 0.038340
                    }
                }
            }
        }
    }
    JOINT RightHip
    {
        OFFSET -0.095851 0.000000 0.000000
        CHANNELS 3 Zrotation Xrotation Yrotation
        JOINT RightKnee
        {
            OFFSET -0.000000 -0.406444 0.000000
            CHANNELS 3 Zrotation Xrotation Yrotation
            JOINT RightAnkle
            {
                OFFSET -0.000000 -0.408443 0.000000
                CHANNELS 3 Zrotation Xrotation Yrotation
                JOINT RightToe
                {
                    OFFSET -0.000000 -0.062303 0.143776
                    CHANNELS 3 Zrotation Xrotation Yrotation
                    End Site
                    {
                        OFFSET -0.000000 0.000000 0.038340
                    }
                }
            }
        }
    }
}
MOTION
Frames:    11
Frame Time:    0.016667
-0.014930    0.885603    0.175590    -1.205910    3.182208    -178.509018    -0.242701    0.381532    0.395443    -2.482601    -2.147112    0.085930    0.127381    14.371140    -1.998641    -0.374945    -3.792927    -1.996338    13.879575    -4.239927    -2.221930    -12.427342    -1.106983    -9.651823    -1.131772    -5.645038    1.877621    92.029114    -2.729712    5.674934    -14.823105    -3.729095    3.029102    17.931353    0.625834    2.140393    -3.153914    -7.489356    -1.060487    -90.847351    1.806873    -7.504939    3.591528    9.066377    0.605533    -0.706290    -2.114635    1.176054    -7.261550    -7.956176    13.353539    0.000000    0.000000    0.000000    -8.074402    10.847934    6.760408    1.007285    -9.462423    1.890792    4.147188    -3.467434    -15.758739    0.000000    0.000000    0.000000    
-0.014976    0.885629    0.175642    -1.209370    3.183659    -178.510559    -0.242139    0.393980    0.393864    -2.488458    -2.169372    0.084739    0.157620    14.333263    -2.009887    -0.397099    -3.743059    -1.997866    13.898140    -4.249787    -2.233509    -12.435672    -1.078839    -9.626546    -1.092685    -5.673732    1.872846    91.969116    -2.742704    5.703109    -14.807711    -3.720673    3.035138    17.947735    0.621019    2.154257    -3.180623    -7.517474    -1.086640    -90.788567    1.794412    -7.535043    3.583175    9.076241    0.605321    -0.708148    -2.141040    1.195707    -7.459710    -8.087982    13.393474    0.000000    0.000000    0.000000    -8.078253    10.839963    6.752200    1.003382    -9.451514    1.907011    4.128584    -3.455853    -15.764777    0.000000    0.000000    0.000000    
-0.015071    0.885664    0.175640    -1.221224    3.185039    -178.528931    -0.249256    0.396571    0.411545    -2.481511    -2.177667    0.090551    0.161275    14.302383    -2.006781    -0.400982    -3.742982    -1.993353    13.847660    -4.266459    -2.208786    -12.330997    -1.155959    -9.684162    -1.223057    -5.491116    1.909632    91.965462    -2.741811    5.517868    -14.858486    -3.774376    3.045838    18.016037    0.637502    2.123967    -3.178579    -7.513676    -1.111053    -90.752853    1.815100    -7.532304    3.561928    9.088987    0.611337    -0.703530    -2.159302    1.168372    -7.260961    -7.935045    13.388577    0.000000    0.000000    0.000000    -8.115286    10.819263    6.825918    1.033341    -9.423836    1.906346    4.168985    -3.508166    -15.857016    0.000000    0.000000    0.000000    
-0.015146    0.885677    0.175674    -1.225628    3.182741    -178.532852    -0.262077    0.410623    0.419175    -2.445300    -2.220764    0.092842    0.146378    14.285771    -2.009988    -0.411511    -3.709002    -1.999429    13.816381    -4.230343    -2.223085    -12.320470    -1.157406    -9.686172    -1.200219    -5.470073    1.894048    91.425797    -3.376198    5.492338    -14.842976    -3.697880    3.050144    17.945948    0.547113    2.144211    -3.118974    -7.467381    -1.129188    -90.716087    1.814244    -7.486524    3.552687    9.085839    0.604130    -0.700867    -2.158556    1.154032    -7.282810    -7.939505    13.397559    0.000000    0.000000    0.000000    -8.112902    10.834238    6.776069    1.014032    -9.462800    1.903844    4.197556    -3.491671    -15.803764    0.000000    0.000000    0.000000    
-0.015220    0.885667    0.175727    -1.212147    3.192189    -178.528061    -0.232523    0.438126    0.420776    -2.452052    -2.254679    0.092194    0.134353    14.292890    -2.017898    -0.392376    -3.743570    -2.012697    13.819450    -4.281086    -2.280179    -12.320523    -1.096062    -9.571071    -1.174848    -5.619508    1.811814    91.360985    -3.321124    5.640476    -14.888514    -3.766123    3.061687    18.007141    0.593247    2.099056    -3.118798    -7.469414    -1.125257    -90.876030    1.844135    -7.485686    3.570099    9.093075    0.593630    -0.728985    -2.127683    0.823492    -7.185473    -8.020113    13.768061    0.000000    0.000000    0.000000    -8.099420    10.850471    6.758840    1.007772    -9.475967    1.898943    4.170731    -3.441956    -15.766768    0.000000    0.000000    0.000000    
-0.015280    0.885640    0.175750    -1.210810    3.194470    -178.531067    -0.225211    0.448459    0.423022    -2.441205    -2.278195    0.092920    0.104537    14.230427    -1.993803    -0.332712    -3.677887    -2.001139    13.814046    -4.255908    -2.279882    -12.331272    -1.140203    -9.545444    -1.150733    -5.528855    1.778797    91.185577    -3.299505    5.545222    -14.949351    -3.820329    3.072763    18.092470    0.653849    2.069007    -3.163223    -7.513509    -1.126759    -90.067162    1.573009    -7.543433    3.566803    9.096624    0.593022    -0.728876    -2.126949    0.850443    -7.245456    -8.063919    13.717184    0.000000    0.000000    0.000000    -8.096771    10.857775    6.734486    1.001668    -9.485394    1.891541    4.155963    -3.414897    -15.735792    0.000000    0.000000    0.000000    
-0.015358    0.885652    0.175723    -1.213477    3.196904    -178.543335    -0.209773    0.453845    0.431065    -2.457099    -2.298408    0.094691    0.154784    14.209253    -2.024555    -0.431438    -3.651295    -2.010250    13.779933    -4.256732    -2.261147    -12.287489    -0.740044    -9.600493    -1.017255    -5.661730    1.836325    91.115807    -3.332487    5.677960    -14.896058    -3.747869    3.082984    18.072693    0.650921    2.097817    -3.263588    -7.564820    -1.156324    -90.002747    1.579255    -7.597434    3.559218    9.099836    0.595556    -0.732948    -2.123981    0.827872    -7.173729    -8.029489    13.771138    0.000000    0.000000    0.000000    -8.106027    10.864407    6.757516    0.993858    -9.499950    1.918584    4.191714    -3.408480    -15.787127    0.000000    0.000000    0.000000    
-0.015433    0.885707    0.175717    -1.223911    3.195703    -178.555359    -0.204062    0.460016    0.441169    -2.464457    -2.317187    0.097551    0.165190    14.170124    -2.016941    -0.438305    -3.610626    -1.998909    13.823778    -4.216389    -2.295250    -12.343226    -0.734684    -9.548787    -1.022481    -5.589454    1.831501    91.316925    -3.388319    5.612139    -14.896359    -3.736977    3.083087    18.080011    0.683722    2.095039    -3.290869    -7.610513    -1.153555    -90.022469    1.589209    -7.643054    3.549729    9.083665    0.572731    -0.739160    -2.119525    1.199611    -7.217468    -7.957795    13.417689    0.000000    0.000000    0.000000    -8.122975    10.855992    6.752919    1.001600    -9.499405    1.918341    4.234146    -3.412726    -15.806229    0.000000    0.000000    0.000000    
-0.015452    0.885684    0.175657    -1.207256    3.226095    -178.564453    -0.179454    0.488617    0.448896    -2.458209    -2.328035    0.099960    0.140986    14.160564    -2.019227    -0.404425    -3.598686    -2.010840    13.809196    -4.209568    -2.298883    -12.334811    -0.682467    -9.547905    -1.118454    -5.926062    1.707878    93.796646    -2.224445    5.983216    -14.946427    -3.803640    3.083818    18.150116    0.729464    2.063266    -3.304265    -7.594258    -1.138722    -90.072754    1.584880    -7.625814    3.571923    9.126170    0.588137    -0.749250    -2.136109    1.184996    -7.216900    -7.960453    13.408049    0.000000    0.000000    0.000000    -8.097753    10.890149    6.745502    0.975617    -9.497788    1.940998    4.227034    -3.409267    -15.791401    0.000000    0.000000    0.000000    
-0.015512    0.885695    0.175694    -1.208428    3.237539    -178.559647    -0.163200    0.509247    0.440605    -2.468614    -2.356738    0.096733    0.173784    14.187285    -2.031754    -0.450400    -3.643557    -2.010965    13.760433    -4.222047    -2.294120    -12.268831    -0.667743    -9.560284    -1.129023    -5.971073    1.747853    93.876007    -2.185178    6.027896    -14.938986    -3.796683    3.101578    18.149511    0.743317    2.053545    -3.309259    -7.574186    -1.128701    -90.124855    1.584649    -7.604783    3.549438    9.136380    0.601166    -0.718860    -2.138274    1.202505    -7.432906    -8.093134    13.430578    0.000000    0.000000    0.000000    -8.094289    10.891750    6.723218    0.972712    -9.474220    1.913274    4.171576    -3.389875    -15.733000    0.000000    0.000000    0.000000    
-0.015564    0.885712    0.175665    -1.220619    3.250456    -178.561859    -0.162553    0.520315    0.440455    -2.473815    -2.367260    0.096230    0.155146    14.178499    -2.027390    -0.412056    -3.619328    -2.014931    13.756137    -4.204418    -2.294538    -12.236148    -0.962695    -9.562598    -1.273539    -5.826019    1.764297    93.898674    -2.210200    5.881745    -14.940967    -3.793287    3.108350    18.138992    0.716282    2.053750    -3.277465    -7.568709    -1.123564    -90.175598    1.590598    -7.598136    3.537118    9.151083    0.601394    -0.733110    -2.129248    1.249150    -7.238360    -7.943229    13.355310    0.000000    0.000000    0.000000    -8.108721    10.899126    6.717447    0.973679    -9.461174    1.923680    4.180665    -3.404345    -15.728949    0.000000    0.000000    0.000000    
